# xmcd CD database file
# Copyright (C) 1995-1998 Ti Kan
#
# Track frame offsets:
#	150
#	18874
#	33306
#	49650
#	61095
#	81026
#	92716
#	108910
#	118403
#	139351
#	157132
#	173857
#	187893
#	202484
#
# Disc length: 2884 seconds
#
# Revision: 2
# Processed by: cddbd v1.4PL0 Copyright (c) Steve Scherf et al.
# Submitted via: CDex 1.30Release
#
DISCID=c10b420e
DTITLE=JIMMY BUCKLEY - YOUR WEDDING DAY
DYEAR=2003
DGENRE=Country
TTITLE0=YOUR WEDDING DAY(Great)
TTITLE1=WHEN DADDY DANCED
TTITLE2=ROSE COLOURED GLASSES
TTITLE3=DIGGY LIGGI LO
TTITLE4=WALKING PIECE OF HEAVEN
TTITLE5=DEEP IN THE HEART OF TEXAS
TTITLE6=LOVELY LEITRIM SHORE
TTITLE7=SPEAK SOFTLY
TTITLE8=NOREEN BAWN
TTITLE9=TRUCKERS WALLET
TTITLE10=OLD LOVERS NEVER DIE
TTITLE11=FOREVER BLUE
TTITLE12=SEPERATE WAYS
TTITLE13=I'LL DIE YOUNG
EXTD=YEAR: 2003 ID3G:   2
EXTT0=
EXTT1=
EXTT2=
EXTT3=
EXTT4=
EXTT5=
EXTT6=
EXTT7=
EXTT8=
EXTT9=
EXTT10=
EXTT11=
EXTT12=
EXTT13=
PLAYORDER=
